<?xml version="1.0" encoding="utf-8"?>
<!-- Generator: Adobe Illustrator 19.1.0, SVG Export Plug-In . SVG Version: 6.00 Build 0)  -->
<svg version="1.1" id="Layer_1" xmlns="https://www.w3.org/2000/svg" xmlns:xlink="https://www.w3.org/1999/xlink" x="0px" y="0px"
	 viewBox="0 0 158.5 79.5" style="enable-background:new 0 0 158.5 79.5;" xml:space="preserve">
<style type="text/css">
	.st0{fill:none;stroke:#DEC228;stroke-width:2;}
</style>
<g>
	<path class="st0" d="M85.6,46.5c0,0-18.3,18.2-27.3,22.6c-2.2,1.1-4.2,1.6-6.2,1.6c-2.8,0-5.2-1.1-7-3.4c-1.6-2-2.3-4.4-2.3-7.1
		c0-1.4,0.2-2.6,0.7-3.8c1.7-3.9,4.3-9.5,7.8-16.7C32.7,60.5,20.2,70.8,13.6,70.7C9.2,70.6,7,68.2,7,63.5c0-4.4,1.5-9.5,4.5-15.3
		c2.7-5.3,6.3-11.4,10.6-18.2C11.9,42.1,6.2,48.1,5,48.1c-1.9,0-2.9-1-2.9-2.9c0-1.6,1-3.4,3.2-5.6c7.5-9,16.4-19.5,26.9-31.5
		c1.1-1.2,2.1-1.8,3.2-1.8c1.8,0,4.2,2.4,7.1,7.3c1.6,2.7,2.5,4.7,2.5,6c0,1-0.3,2.2-1,3.6c-1.6,3.8-4.2,9.3-7.7,16.4
		c-0.7,1.3-1.1,2.4-1.1,3.3c0,1.3,0.6,1.7,1.9,1.4c1.6-0.5,3.6-2.1,6-4.7c5.1-5.3,11.6-13.1,19.3-23.4c1.2-1.6,3.8-3.4,7.7-5.3
		c4-1.9,7.1-2.7,9.2-2.5c3,0.2,4.5,1.3,4.5,3.3c0,1.7-1.1,4.8-3.2,9.3c-3.6,6.9-7.5,14.8-11.9,23.7c-1.4,3.9-0.8,5.9,1.6,5.9
		c1.2,0,2.6-0.8,4.4-2.5c1.6-1.6,6.6-6.4,6.6-6.4"/>
	<path class="st0" d="M81.4,41.7c7.2-8.2,16.3-18.4,27.3-30.4c2.6-2.7,5.3-4.1,8.1-4.1c4.4,0,6.9,2.8,7.4,8.4
		c0.4,3.7,1,8.5,1.8,14.3c3.7-2.6,6-4.8,7.1-6.9c0.7-1.3,1.4-4,2.1-8.2c1.2-7.6,4.6-11.4,10.1-11.4c2,0,3.7,0.7,5.1,2.1
		c1.6,1.6,2.3,3.8,2.3,6.6c0,6.3-3.4,11.6-10.1,16c-3.2,1.8-8.5,4.8-15.8,9c0,0.8,0.1,2,0.4,3.5c0.3,1.5,0.4,2.6,0.4,3.4
		c0.5,4.4,1.2,7.1,1.9,8.2c0.7,1.1,2.1,1.6,4,1.6c2.4,0,7-4,13.8-12.1c1.2-1.5,2.4-2.2,3.6-2.2c1.6,0,2.3,0.9,2.3,2.6
		c0,0.9-0.4,1.9-1.2,2.9c-5.9,7.4-13.5,14.7-22.6,21.9c-2.7,2.2-5.5,3.3-8.4,3.3c-4.8,0-7.7-2.5-8.8-7.4c-1.3-5.3-2.3-10.4-3.2-15.3
		c-3,1.8-5.1,3.6-6.2,5.2c-1.3,1.9-2,4.7-2.1,8.2c-0.3,10.4-3.6,15.6-9.9,15.6c-4.8,0-7.3-2.8-7.3-8.5c0-5.2,3.7-11.3,11.2-18.4
		c3-2.8,7.4-5.9,13-9.2c0,0.4-0.1-1.6-0.4-5.9c-0.3-3.7-1.3-5.6-3.2-5.6c-1.6,0-3.3,1.1-5.3,3.2C95.4,36,85.6,46.5,85.6,46.5"/>
</g>
<rect x="42.1" y="241.2" style="fill:none;" width="274.4" height="237.2"/>
<text transform="matrix(1 0 0 1 42.0933 276.0402)" style="font-family:'BodoniUltraFLFCond-Italic'; font-size:50px;">2</text>
</svg>
