<?xml version="1.0" encoding="utf-8"?>
<!-- Generator: Adobe Illustrator 19.1.0, SVG Export Plug-In . SVG Version: 6.00 Build 0)  -->
<svg version="1.1" id="Layer_1" xmlns="http://www.w3.org/2000/svg" xmlns:xlink="http://www.w3.org/1999/xlink" x="0px" y="0px"
	 viewBox="-333 253.8 175 88.5" style="enable-background:new -333 253.8 175 88.5;" xml:space="preserve">
<style type="text/css">
	.st0{display:none;}
	.st1{display:inline;}
	.st2{fill:none;stroke:#DEC228;stroke-width:2;}
	.st3{display:inline;fill:none;}
	.st4{enable-background:new    ;}
	.st5{fill:#DEC228;}
	.st6{display:inline;fill:#DEC228;}
	.st7{fill:none;stroke:#DEC22C;stroke-miterlimit:10;}
	.st8{fill:none;}
	.st9{font-family:'MyriadPro-Regular';}
	.st10{font-size:12px;}
</style>
<g id="Layer_1_1_" class="st0">
	<g class="st1">
		<path class="st2" d="M-524.8,532.3c0,0-18.3,18.2-27.3,22.6c-2.2,1.1-4.2,1.6-6.2,1.6c-2.8,0-5.2-1.1-7-3.4
			c-1.6-2-2.3-4.4-2.3-7.1c0-1.4,0.2-2.6,0.7-3.8c1.7-3.9,4.3-9.5,7.8-16.7c-18.6,20.8-31.1,31.1-37.7,31c-4.4-0.1-6.6-2.5-6.6-7.2
			c0-4.4,1.5-9.5,4.5-15.3c2.7-5.3,6.3-11.4,10.6-18.2c-10.2,12.1-15.9,18.1-17.1,18.1c-1.9,0-2.9-1-2.9-2.9c0-1.6,1-3.4,3.2-5.6
			c7.5-9,16.4-19.5,26.9-31.5c1.1-1.2,2.1-1.8,3.2-1.8c1.8,0,4.2,2.4,7.1,7.3c1.6,2.7,2.5,4.7,2.5,6c0,1-0.3,2.2-1,3.6
			c-1.6,3.8-4.2,9.3-7.7,16.4c-0.7,1.3-1.1,2.4-1.1,3.3c0,1.3,0.6,1.7,1.9,1.4c1.6-0.5,3.6-2.1,6-4.7c5.1-5.3,11.6-13.1,19.3-23.4
			c1.2-1.6,3.8-3.4,7.7-5.3c4-1.9,7.1-2.7,9.2-2.5c3,0.2,4.5,1.3,4.5,3.3c0,1.7-1.1,4.8-3.2,9.3c-3.6,6.9-7.5,14.8-11.9,23.7
			c-1.4,3.9-0.8,5.9,1.6,5.9c1.2,0,2.6-0.8,4.4-2.5c1.6-1.6,6.6-6.4,6.6-6.4"/>
		<path class="st2" d="M-529,527.5c7.2-8.2,16.3-18.4,27.3-30.4c2.6-2.7,5.3-4.1,8.1-4.1c4.4,0,6.9,2.8,7.4,8.4
			c0.4,3.7,1,8.5,1.8,14.3c3.7-2.6,6-4.8,7.1-6.9c0.7-1.3,1.4-4,2.1-8.2c1.2-7.6,4.6-11.4,10.1-11.4c2,0,3.7,0.7,5.1,2.1
			c1.6,1.6,2.3,3.8,2.3,6.6c0,6.3-3.4,11.6-10.1,16c-3.2,1.8-8.5,4.8-15.8,9c0,0.8,0.1,2,0.4,3.5s0.4,2.6,0.4,3.4
			c0.5,4.4,1.2,7.1,1.9,8.2c0.7,1.1,2.1,1.6,4,1.6c2.4,0,7-4,13.8-12.1c1.2-1.5,2.4-2.2,3.6-2.2c1.6,0,2.3,0.9,2.3,2.6
			c0,0.9-0.4,1.9-1.2,2.9c-5.9,7.4-13.5,14.7-22.6,21.9c-2.7,2.2-5.5,3.3-8.4,3.3c-4.8,0-7.7-2.5-8.8-7.4
			c-1.3-5.3-2.3-10.4-3.2-15.3c-3,1.8-5.1,3.6-6.2,5.2c-1.3,1.9-2,4.7-2.1,8.2c-0.3,10.4-3.6,15.6-9.9,15.6c-4.8,0-7.3-2.8-7.3-8.5
			c0-5.2,3.7-11.3,11.2-18.4c3-2.8,7.4-5.9,13-9.2c0,0.4-0.1-1.6-0.4-5.9c-0.3-3.7-1.3-5.6-3.2-5.6c-1.6,0-3.3,1.1-5.3,3.2
			c-3.4,3.9-13.2,14.4-13.2,14.4"/>
	</g>
	<rect x="-578.3" y="548.1" class="st3" width="194.7" height="29.9"/>
	<text transform="matrix(1 0 0 1 -513.7809 565.6481)" class="st6" style="font-family:'BallparkWeiner'; font-size:27px;">design</text>
</g>
<g id="Layer_1_copy">
	<g>
		<path class="st2" d="M-245.7,296.9c0,0-18.3,18.2-27.3,22.6c-2.2,1.1-4.2,1.6-6.2,1.6c-2.8,0-5.2-1.1-7-3.4
			c-1.6-2-2.3-4.4-2.3-7.1c0-1.4,0.2-2.6,0.7-3.8c1.7-3.9,4.3-9.5,7.8-16.7c-18.6,20.8-31.1,31.1-37.7,31c-4.4-0.1-6.6-2.5-6.6-7.2
			c0-4.4,1.5-9.5,4.5-15.3c2.7-5.3,6.3-11.4,10.6-18.2c-10.2,12.1-15.9,18.1-17.1,18.1c-1.9,0-2.9-1-2.9-2.9c0-1.6,1-3.4,3.2-5.6
			c7.5-9,16.4-19.5,26.9-31.5c1.1-1.2,2.1-1.8,3.2-1.8c1.8,0,4.2,2.4,7.1,7.3c1.6,2.7,2.5,4.7,2.5,6c0,1-0.3,2.2-1,3.6
			c-1.6,3.8-4.2,9.3-7.7,16.4c-0.7,1.3-1.1,2.4-1.1,3.3c0,1.3,0.6,1.7,1.9,1.4c1.6-0.5,3.6-2.1,6-4.7c5.1-5.3,11.6-13.1,19.3-23.4
			c1.2-1.6,3.8-3.4,7.7-5.3c4-1.9,7.1-2.7,9.2-2.5c3,0.2,4.5,1.3,4.5,3.3c0,1.7-1.1,4.8-3.2,9.3c-3.6,6.9-7.5,14.8-11.9,23.7
			c-1.4,3.9-0.8,5.9,1.6,5.9c1.2,0,2.6-0.8,4.4-2.5c1.6-1.6,6.6-6.4,6.6-6.4"/>
		<path class="st2" d="M-249.9,292.1c7.2-8.2,16.3-18.4,27.3-30.4c2.6-2.7,5.3-4.1,8.1-4.1c4.4,0,6.9,2.8,7.4,8.4
			c0.4,3.7,1,8.5,1.8,14.3c3.7-2.6,6-4.8,7.1-6.9c0.7-1.3,1.4-4,2.1-8.2c1.2-7.6,4.6-11.4,10.1-11.4c2,0,3.7,0.7,5.1,2.1
			c1.6,1.6,2.3,3.8,2.3,6.6c0,6.3-3.4,11.6-10.1,16c-3.2,1.8-8.5,4.8-15.8,9c0,0.8,0.1,2,0.4,3.5s0.4,2.6,0.4,3.4
			c0.5,4.4,1.2,7.1,1.9,8.2s2.1,1.6,4,1.6c2.4,0,7-4,13.8-12.1c1.2-1.5,2.4-2.2,3.6-2.2c1.6,0,2.3,0.9,2.3,2.6
			c0,0.9-0.4,1.9-1.2,2.9c-5.9,7.4-13.5,14.7-22.6,21.9c-2.7,2.2-5.5,3.3-8.4,3.3c-4.8,0-7.7-2.5-8.8-7.4
			c-1.3-5.3-2.3-10.4-3.2-15.3c-3,1.8-5.1,3.6-6.2,5.2c-1.3,1.9-2,4.7-2.1,8.2c-0.3,10.4-3.6,15.6-9.9,15.6c-4.8,0-7.3-2.8-7.3-8.5
			c0-5.2,3.7-11.3,11.2-18.4c3-2.8,7.4-5.9,13-9.2c0,0.4-0.1-1.6-0.4-5.9c-0.3-3.7-1.3-5.6-3.2-5.6c-1.6,0-3.3,1.1-5.3,3.2
			c-3.4,3.9-13.2,14.4-13.2,14.4"/>
	</g>
	<g class="st0">
		<path class="st6" d="M-196.2,291.2c-0.1,0.6-0.2,1-0.5,1.2c-0.1,0.1-0.2,0.1-0.3,0.1c-0.2,0-0.4-0.1-0.6-0.3
			c0-0.1-0.1-0.1-0.1-0.2c-0.1-0.1-0.1-0.2-0.1-0.2c0-0.1,0-0.2,0-0.3c0,0.2-0.1,0.3-0.1,0.3h-0.1c-0.1,0-0.1,0-0.1-0.1s0-0.1,0-0.2
			s0.1-0.4,0.1-0.8c0-0.5,0.1-0.9,0.1-1.2c0.1-0.5,0.3-0.8,0.6-1c0.2-0.1,0.4-0.2,0.6-0.2c-0.1-0.7-0.2-1.4-0.3-2.2
			c0-0.1,0-0.1,0-0.2s0-0.1,0.1-0.1c0.1-0.1,0.3-0.1,0.5,0s0.3,0.2,0.4,0.2c0.1,0.1,0.2,0.7,0.4,1.8c0.1,0.5,0.2,1.1,0.3,1.7
			c0,0.1,0,0.1,0.1,0.2s0.1,0.1,0.2,0l0.1-0.1c0-0.1,0-0.3,0.1-0.5c0-0.1,0.1-0.1,0.1-0.1h0.1h0.1c0.1,0.1,0.1,0.4,0,0.9
			c-0.1,0.7-0.3,1.2-0.7,1.4C-195.6,291.5-195.9,291.4-196.2,291.2z M-196.6,291c0.1-0.1,0.2-0.4,0.1-1c0-0.4-0.1-0.7-0.2-0.9
			c-0.1-0.1-0.1-0.1-0.2,0c-0.1,0.1-0.2,0.4-0.1,1.1c0,0.4,0.1,0.7,0.2,0.8C-196.8,291-196.7,291-196.6,291z"/>
		<path class="st6" d="M-193.7,288.7c0.1,0.2,0.3,0.3,0.5,0.2c0.1-0.1,0.2-0.2,0.3-0.5c0.1-0.2,0.1-0.4,0.2-0.6
			c0-0.3,0.1-0.5,0.1-0.5l0.1-0.1c0,0,0.1,0,0.2,0h0.1c0.1,0.1,0.1,0.4,0,0.8c-0.2,0.9-0.5,1.5-0.9,1.8c-0.1,0.1-0.3,0.2-0.4,0.2
			c-0.2,0-0.4,0-0.6-0.1c-0.2-0.1-0.3-0.2-0.3-0.3c-0.1-0.1-0.1-0.2-0.1-0.2c0-0.1,0-0.2,0-0.3c0,0.2-0.1,0.3-0.1,0.3h-0.1
			c-0.1,0-0.1,0-0.1-0.1c0,0,0-0.1,0-0.2s0-0.3,0.1-0.8c0-0.4,0.1-0.8,0.2-1.2c0.1-0.5,0.4-0.8,0.6-1c0.2-0.1,0.3-0.2,0.5-0.2
			s0.3,0.1,0.4,0.2c0.1,0.2,0.2,0.5,0.1,1C-193.1,287.7-193.3,288.3-193.7,288.7z M-193.7,287.8c0.1,0,0.1-0.3,0.2-0.6
			c0-0.2,0-0.4-0.1-0.6c0-0.1-0.1-0.1-0.1,0c-0.1,0.1-0.1,0.3-0.1,0.7C-193.8,287.6-193.8,287.7-193.7,287.8
			C-193.8,287.9-193.8,287.9-193.7,287.8z"/>
		<path class="st6" d="M-190.4,285.9c0.1-0.1,0.1-0.2,0.1-0.3c0-0.1,0-0.2,0.1-0.2c0.1-0.1,0.2-0.1,0.2,0c0,0,0,0.1,0,0.3
			c0,0.2-0.1,0.5-0.3,0.6c0.1,0.4,0.1,0.7,0,1.1c-0.1,0.2-0.2,0.4-0.4,0.5c-0.4,0.3-0.7,0.4-1,0.3c-0.2-0.1-0.3-0.2-0.4-0.3
			c-0.2-0.2-0.2-0.4-0.1-0.6c0.1-0.2,0.2-0.3,0.3-0.4s0.2-0.2,0.5-0.3c-0.1-0.1-0.2-0.3-0.4-0.6c-0.2-0.2-0.3-0.4-0.3-0.6
			c-0.1,0.2-0.1,0.5-0.2,1c0,0.6-0.1,0.9-0.1,1s-0.1,0.2-0.2,0.2c-0.1,0-0.2-0.1-0.1-0.2c0-0.4,0.1-1,0.1-1.8c0-0.3,0.1-0.6,0.2-0.9
			c0.1-0.3,0.3-0.5,0.4-0.6c0.3-0.2,0.5-0.2,0.7,0c0.1,0.1,0.1,0.2,0.1,0.3c0,0.1-0.1,0.2-0.1,0.3c0,0,0,0-0.1,0
			c-0.1,0.1-0.2,0.1-0.2,0.2s0,0.1,0,0.2s0.1,0.2,0.3,0.3c0,0,0.2,0.1,0.4,0.2C-190.6,285.7-190.5,285.8-190.4,285.9z M-191.2,286.9
			c-0.3,0.2-0.5,0.3-0.5,0.3c0,0.1,0,0.2,0,0.2c0.1,0.1,0.1,0.1,0.2,0.1h0.1C-191.2,287.4-191.1,287.2-191.2,286.9z"/>
		<path class="st6" d="M-190.1,285.8c-0.1,0-0.2,0-0.2-0.2s0-0.5,0-1c0-0.3,0-0.6,0-0.9s0-0.5,0.1-0.6s0.1-0.2,0.2-0.2
			c0,0,0.1,0,0.2,0c0.3,0.1,0.5,0.2,0.6,0.3c0.1,0.1,0.2,0.4,0.3,0.9s0.2,0.7,0.3,0.8c0,0,0.1,0.1,0.1,0c0,0,0.1-0.2,0.1-0.5
			c0-0.4,0.1-0.6,0.2-0.6c0.1-0.1,0.2-0.1,0.2,0c0,0,0.1,0.1,0.1,0.2c0,0.3,0,0.7-0.2,1.2c-0.2,0.6-0.3,1-0.5,1.1
			c-0.1,0.1-0.3,0.1-0.4,0.1c-0.1,0-0.2-0.1-0.3-0.2c-0.1-0.2-0.2-0.3-0.3-0.6c0-0.1-0.1-0.5-0.2-1.2c0,0.3,0,0.7-0.1,1.1
			C-190,285.7-190.1,285.7-190.1,285.8z"/>
		<path class="st6" d="M-186.7,285.2c0.1-0.1,0.2-0.3,0.3-0.6c0-0.1,0-0.2-0.1-0.2c-0.1,0.2-0.3,0.4-0.5,0.6s-0.5,0.2-0.7,0.2
			c-0.1,0-0.2-0.1-0.3-0.3c-0.2-0.3-0.3-0.5-0.3-0.7c0,0.1-0.1,0.2-0.1,0.2c-0.1,0-0.2,0-0.2-0.1v-0.1c0-0.2,0-0.5,0.1-0.9
			c0.1-0.6,0.1-0.9,0.1-1c0.1-0.5,0.3-0.9,0.5-1.1c0.5-0.3,0.7-0.4,0.8-0.3c-0.1-0.5-0.2-0.9,0-0.9c0.1-0.1,0.2,0,0.4,0
			c0.1,0,0.2,0.1,0.3,0.1s0.2,0.1,0.2,0.2c0.1,0.5,0.3,1.5,0.6,2.8c0.1-0.2,0.1-0.4,0.1-0.5c0.1-0.5,0.1-0.8,0.1-0.8
			c0-0.2,0.1-0.3,0.1-0.3c0.1-0.1,0.1,0,0.2,0c0.1,0.1,0.1,0.2,0.1,0.4c-0.1,0.6-0.2,1.2-0.5,1.8c0.3,1.5,0.3,2.5-0.1,2.9
			c-0.1,0.2-0.3,0.3-0.4,0.4c-0.2,0.2-0.5,0.3-0.7,0.3s-0.4-0.1-0.5-0.4c-0.1-0.2-0.1-0.5,0-0.9C-187,285.8-186.9,285.5-186.7,285.2
			z M-186.1,286.1c0-0.3-0.1-0.6-0.2-1c-0.3,0.4-0.4,0.8-0.3,1.1c0,0.2,0.1,0.3,0.1,0.4c0.1,0.1,0.2,0.1,0.2,0.1
			C-186.1,286.6-186,286.4-186.1,286.1z M-187.3,282.6c0,0.6,0.1,0.9,0.2,1c0,0,0.1,0,0.2,0c0,0,0.1,0,0.1-0.1
			c0.2-0.1,0.2-0.5,0.2-1c-0.1-0.5-0.1-0.8-0.2-0.9c0,0-0.1-0.1-0.1,0h-0.1C-187.3,281.8-187.3,282.1-187.3,282.6z"/>
		<path class="st6" d="M-185,282.1h-0.1c0,0,0-0.1,0-0.2c0-0.4,0-0.9,0-1.6s0-1.1,0.1-1.1s0.2,0,0.3,0s0.2,0.1,0.3,0.1
			c0.2,0.1,0.3,0.3,0.3,0.4s0.1,0.3,0.1,0.6c0-0.2,0.1-0.5,0.1-0.7c0.1-0.5,0.2-0.8,0.3-1c0-0.1,0.1-0.2,0.1-0.4s0.1-0.2,0.2-0.3
			c0.1-0.1,0.3-0.1,0.5,0c0,0,0.1,0,0.1,0.1c0.1,0.1,0.1,0.4,0.2,0.9c0.1,0.7,0.2,1.1,0.3,1.2h0.1c0.1-0.1,0.2-0.3,0.3-0.6
			c0,0,0-0.1,0-0.3c0-0.1,0-0.2,0.1-0.2c0.1,0,0.1,0,0.2,0.1c0.1,0.1,0.1,0.2,0.1,0.4c0,0.2-0.1,0.5-0.2,0.9
			c-0.1,0.4-0.2,0.7-0.3,0.8c-0.1,0.1-0.2,0.2-0.3,0.3c-0.2,0.2-0.4,0.2-0.6,0c-0.2-0.2-0.3-0.8-0.5-1.8v-0.1c0,0,0,0-0.1,0
			c-0.1,0.1-0.1,0.1-0.1,0.3c0,0.1,0,0.4-0.1,0.8c0,0.5-0.1,0.8,0,1c0,0.2,0,0.4-0.1,0.6s-0.2,0.4-0.3,0.4c-0.1,0.1-0.3,0.1-0.4-0.1
			c-0.1-0.1-0.1-0.2-0.1-0.3c0-0.2,0-0.4,0-0.4c0-0.2-0.1-0.7-0.3-1.5C-184.9,281.6-185,282.1-185,282.1z"/>
	</g>
</g>
<g id="Layer_2" class="st0">
	<rect x="-674.5" y="480.9" class="st3" width="369.5" height="156.7"/>
	<text transform="matrix(1 0 0 1 -674.5 583.4883)" class="st1" style="font-family:'BallparkWeiner'; font-size:158px;">ux</text>
</g>
<g id="D" class="st0">
	
		<text transform="matrix(1 0 0 1 -527.2347 601.131)" style="display:inline;fill:none;stroke:#DEC228;stroke-width:2; font-family:'BallparkWeiner'; font-size:131.669px;">D</text>
</g>
<g id="interactive_designer" class="st0">
	<rect x="-705.6" y="536.1" class="st3" width="366" height="104"/>
	
		<text transform="matrix(1 0 0 1 -593.5082 552.3437)" style="display:inline;fill:none;stroke:#DEC22C;stroke-miterlimit:10; font-family:'PosterBodoniBT-Roman'; font-size:23px;">Interactive </text>
	
		<text transform="matrix(1 0 0 1 -577.9082 568.3437)" style="display:inline;fill:none;stroke:#DEC22C;stroke-miterlimit:10; font-family:'PosterBodoniBT-Roman'; font-size:23px;">designer</text>
</g>
<rect x="-322.8" y="326.1" class="st8" width="152.8" height="13.5"/>
<text transform="matrix(1 0 0 1 -322.75 334.5795)" class="st9 st10">Design and development</text>
</svg>
