<?xml version="1.0" encoding="utf-8"?>
<!-- Generator: Adobe Illustrator 19.1.0, SVG Export Plug-In . SVG Version: 6.00 Build 0)  -->
<svg version="1.1" id="Layer_1" xmlns="http://www.w3.org/2000/svg" xmlns:xlink="http://www.w3.org/1999/xlink" x="0px" y="0px"
	 viewBox="0 0 226.2 206.6" style="enable-background:new 0 0 226.2 206.6;" xml:space="preserve">
<style type="text/css">
	.st0{fill:#010202;}
</style>
<g>
	<path class="st0" d="M82,146.1H61.3c0,0-14.5-14.3,20.1-40.1l16.2-11.6c0,0-11.9,13.8-14.9,28.8c-3,15,3.5,23,3.5,23H82z
		 M175.2,137.2c-4.6-16.1-3.6-36.2-0.9-49.9c1.8-9.5,9-25.1,9-25.1s1.2-4.6-15.2-4.6s-33.1,5-53.3,13s-43,27.9-49.9,34
		c-6.8,6.1-22.3,25.2-22.3,36c0,10.8,4.8,17.7,4.8,17.7h75.5l-8.5-12.1c-4.7,0-11.4,0.2-15.2-5.3c-3.6-5.1-4.4-10.9-2.1-19.1
		c1.9-7,5.7-13,20.4-28.5c16.2-16.9,42.2-21.5,42.2-21.5c-6.2,19.5-4.1,43.3-4.1,43.3c-20-17.7-35.5-24.5-35.5-24.5
		c-3,0.9-8.5,8.4-8.5,8.4s10.2,5,19.5,13.2c9.8,8.6,17,20.2,21.7,28.9c4.6,8.7-0.6,17.3-0.6,17.3H187
		C187,158.2,179.8,153.3,175.2,137.2z"/>
	<path class="st0" d="M100.6,79c0,0-5.6,3.2-11.2,7.7c0.9-0.7-56.3-29.1-56.3-29.1h119.7c0,0-19.8,3.4-33.5,9.7l-41.6-0.1L100.6,79z
		"/>
</g>
</svg>
